<?xml version="1.0" encoding="UTF-8"?>
<svg version="1.1" xmlns="http://www.w3.org/2000/svg" width="90" height="90">
<path d="M0 0 C2.9482117 0.00542177 5.89627494 -0.00001424 8.84448242 -0.00634766 C10.74617546 -0.00568773 12.64786841 -0.00440835 14.54956055 -0.00244141 C15.41738663 -0.00446564 16.28521271 -0.00648987 17.17933655 -0.00857544 C22.32120122 0.01106017 27.28882836 0.22407077 32.3581543 1.13037109 C33.69548454 3.80503158 33.16351085 5.18843152 32.64550781 8.12402344 C32.46524551 9.16626068 32.28498322 10.20849792 32.09925842 11.28231812 C31.89723312 12.41553497 31.69520782 13.54875183 31.48706055 14.71630859 C31.07347909 17.11601889 30.66007342 19.51575948 30.24682617 21.91552734 C29.58742069 25.69885713 28.92484486 29.48159315 28.25830078 33.26367188 C27.61759794 36.91311144 26.98928345 40.56453164 26.36206055 44.21630859 C26.16205948 45.32928314 25.96205841 46.44225769 25.7559967 47.58895874 C24.65035538 54.0616881 24.18519357 60.19593755 24.38536072 66.7640686 C24.3581543 69.13037109 24.3581543 69.13037109 23.3581543 71.13037109 C22.6981543 71.13037109 22.0381543 71.13037109 21.3581543 71.13037109 C21.0900293 71.87287109 20.8219043 72.61537109 20.5456543 73.38037109 C19.40517781 76.02147455 18.07138358 77.84606538 16.3581543 80.13037109 C15.9559668 81.42974609 15.9559668 81.42974609 15.5456543 82.75537109 C14.3581543 85.13037109 14.3581543 85.13037109 11.71362305 86.27099609 C8.15246284 87.18305109 5.15115403 87.33022823 1.4831543 87.25537109 C0.33073242 87.23732422 -0.82168945 87.21927734 -2.0090332 87.20068359 C-2.87786133 87.17748047 -3.74668945 87.15427734 -4.6418457 87.13037109 C-5.75009271 84.91387708 -5.76909123 83.58546054 -5.8918457 81.13037109 C-6.44904752 75.59430138 -8.49499302 70.71422587 -11.6418457 66.13037109 C-12.6318457 65.80037109 -13.6218457 65.47037109 -14.6418457 65.13037109 C-15.3018457 67.44037109 -15.9618457 69.75037109 -16.6418457 72.13037109 C-20.25620247 71.79152515 -22.47597424 70.65398589 -25.3918457 68.63037109 C-29.14601228 66.15587335 -32.02390871 65.63029196 -36.4543457 65.37646484 C-39.88212552 64.99083961 -42.56032479 63.63834941 -45.6418457 62.13037109 C-45.61864258 61.48712891 -45.59543945 60.84388672 -45.5715332 60.18115234 C-45.47082456 55.1385265 -45.66376975 50.32958437 -46.4855957 45.34912109 C-47.33740539 40.04515084 -48.15305135 34.73852703 -48.9309082 29.42333984 C-49.04014618 28.67961624 -49.14938416 27.93589264 -49.26193237 27.16963196 C-49.59733232 24.88577437 -49.93210124 22.60182484 -50.2668457 20.31787109 C-50.49857566 18.73908905 -50.73034625 17.16031297 -50.9621582 15.58154297 C-51.52252102 11.76455405 -52.08233901 7.9474856 -52.6418457 4.13037109 C-35.07444459 0.37099454 -17.92311072 -0.03926202 0 0 Z " fill="#CCCCCC" transform="translate(54.641845703125,2.86962890625)"/>
</svg>
