<?xml version="1.0" encoding="UTF-8"?>
<svg version="1.1" xmlns="http://www.w3.org/2000/svg" width="90" height="90">
<path d="M0 0 C0.89541504 0.00267883 1.79083008 0.00535767 2.71337891 0.00811768 C3.39319824 0.01156189 4.07301758 0.0150061 4.7734375 0.01855469 C6.32184982 6.06913381 7.87009084 12.11975675 9.41821289 18.17041016 C9.94486614 20.22868848 10.47155857 22.28695678 10.99829102 24.34521484 C11.75547426 27.30401007 12.5125165 30.26284135 13.26953125 33.22167969 C13.50498154 34.14160706 13.74043182 35.06153442 13.98301697 36.00933838 C14.20316971 36.86992859 14.42332245 37.7305188 14.65014648 38.6171875 C14.84333969 39.37219543 15.0365329 40.12720337 15.23558044 40.90509033 C15.41307327 41.60253357 15.5905661 42.29997681 15.7734375 43.01855469 C15.95258194 43.72034851 16.13172638 44.42214233 16.31629944 45.14520264 C16.65937471 46.55112529 16.94876353 47.97032457 17.2109375 49.39355469 C17.71484323 52.13518359 17.71484323 52.13518359 19.0234375 55.01855469 C19.7734375 58.01855469 19.7734375 58.01855469 18.5234375 60.76855469 C15.64956918 64.46352825 13.43018054 65.54615185 9.03515625 67.10058594 C6.69843036 68.048998 4.67776728 69.21183007 2.5234375 70.51855469 C-1.02042745 72.57766242 -4.22264458 73.5973464 -8.2265625 74.45605469 C-15.34165238 76.06239513 -20.95481187 79.03282529 -25.4140625 84.89355469 C-27.2265625 87.01855469 -27.2265625 87.01855469 -29.9765625 87.58105469 C-34.33438413 86.82681633 -37.84861694 85.99143611 -41.2265625 83.01855469 C-42.60356856 80.27702298 -43.50893203 77.62555459 -44.33984375 74.67480469 C-45.05797197 71.98735711 -45.05797197 71.98735711 -46.8046875 70.12402344 C-48.86807193 67.06862726 -48.60081762 64.4806564 -48.6640625 60.83105469 C-48.9281802 54.37759805 -50.05007547 49.63001442 -53.2265625 44.01855469 C-53.70738281 43.09042969 -54.18820313 42.16230469 -54.68359375 41.20605469 C-57.64522719 35.56383125 -57.64522719 35.56383125 -61.4140625 30.45605469 C-64.18595375 26.72833886 -65.08414121 22.47572867 -66.2265625 18.01855469 C-65.5459375 17.73882813 -64.8653125 17.45910156 -64.1640625 17.17089844 C-63.1946875 16.77 -62.2253125 16.36910156 -61.2265625 15.95605469 C-59.57527344 15.27542969 -59.57527344 15.27542969 -57.890625 14.58105469 C-55.39491157 13.51678457 -52.94826528 12.42966646 -50.5 11.26855469 C-34.90428427 3.95404737 -17.27797485 -0.0671607 0 0 Z " fill="#CCCCCC" transform="translate(68.2265625,2.9814453125)"/>
<path d="M0 0 C0.66 0.33 1.32 0.66 2 1 C1.01 1.33 0.02 1.66 -1 2 C-1 4.31 -1 6.62 -1 9 C-2.74627478 6.38058783 -3.38722388 4.96175123 -4 2 C-2.125 0.9375 -2.125 0.9375 0 0 Z " fill="#7B7B7B" transform="translate(6,19)"/>
</svg>
