<?xml version="1.0" encoding="UTF-8"?>
<svg version="1.1" xmlns="http://www.w3.org/2000/svg" width="90" height="90">
<path d="M0 0 C1.02781082 0.05249908 2.05562164 0.10499817 3.11457825 0.15908813 C4.27636093 0.21599823 5.43814362 0.27290833 6.63513184 0.33154297 C7.9017012 0.39918854 9.16827057 0.46683411 10.47322083 0.53652954 C11.76714249 0.60216095 13.06106415 0.66779236 14.39419556 0.7354126 C17.14085289 0.87513019 19.88729044 1.01846633 22.63362122 1.16445923 C26.14257419 1.35081921 29.65186248 1.52955441 33.16134167 1.7056942 C36.51549207 1.87483879 39.86934119 2.04959633 43.22322083 2.22402954 C44.47966904 2.28762665 45.73611725 2.35122375 47.03063965 2.41674805 C48.20818314 2.47996246 49.38572662 2.54317688 50.59895325 2.60830688 C51.63074203 2.66239716 52.66253082 2.71648743 53.72558594 2.7722168 C56.72903293 3.01706884 59.7078417 3.51769031 62.68025208 4.01309204 C62.68025208 20.84309204 62.68025208 37.67309204 62.68025208 55.01309204 C61.19525208 55.50809204 61.19525208 55.50809204 59.68025208 56.01309204 C60.34025208 56.34309204 61.00025208 56.67309204 61.68025208 57.01309204 C61.68025208 58.00309204 61.68025208 58.99309204 61.68025208 60.01309204 C59.76429725 60.35049289 57.84745485 60.68285616 55.93025208 61.01309204 C54.32923645 61.29152954 54.32923645 61.29152954 52.69587708 61.57559204 C49.68025208 62.01309204 49.68025208 62.01309204 45.68025208 62.01309204 C45.72150208 63.06496704 45.76275208 64.11684204 45.80525208 65.20059204 C45.60729956 71.23814366 45.60729956 71.23814366 43.68025208 74.01309204 C41.44226741 75.00727369 39.23598163 75.70241013 36.87165833 76.33731079 C34.42402607 76.9781653 34.42402607 76.9781653 31.68025208 79.01309204 C26.81291053 80.69794104 22.79918743 81.10289792 17.68025208 81.01309204 C12.47963811 81.0666832 12.47963811 81.0666832 8.20368958 83.53652954 C6.68025208 85.01309204 6.68025208 85.01309204 4.73493958 85.37637329 C-6.36067808 85.11787324 -6.36067808 85.11787324 -11.31974792 83.01309204 C-15.00796623 78.65428859 -14.52644819 74.02806612 -14.22990417 68.59902954 C-14.32689065 65.80750571 -14.80342095 64.33708458 -16.31974792 62.01309204 C-18.35334273 60.74504638 -18.35334273 60.74504638 -20.31974792 60.01309204 C-20.31974792 59.02309204 -20.31974792 58.03309204 -20.31974792 57.01309204 C-20.97974792 56.68309204 -21.63974792 56.35309204 -22.31974792 56.01309204 C-21.88574247 54.36633375 -21.44730875 52.72074251 -21.00724792 51.07559204 C-20.76361511 50.1590686 -20.5199823 49.24254517 -20.26896667 48.29824829 C-19.30582436 44.9649039 -18.22988828 41.68824945 -17.12028503 38.40151978 C-16.32131344 36.01776281 -15.54976351 33.62664157 -14.78459167 31.23184204 C-14.27547709 29.65892537 -13.76636251 28.08600871 -13.25724792 26.51309204 C-12.87342957 25.29879517 -12.87342957 25.29879517 -12.4818573 24.05996704 C-11.81775839 22.02499044 -11.07504961 20.01600904 -10.31974792 18.01309204 C-9.65974792 17.68309204 -8.99974792 17.35309204 -8.31974792 17.01309204 C-8.19599792 16.20871704 -8.07224792 15.40434204 -7.94474792 14.57559204 C-5.39296625 0.03043647 -5.39296625 0.03043647 0 0 Z " fill="#CCCCCC" transform="translate(24.319747924804688,1.986907958984375)"/>
<path d="M0 0 C3.96 0 7.92 0 12 0 C12 0.33 12 0.66 12 1 C7.20862412 2.6290678 3.94367454 3.20577428 -1 2 C-0.67 1.34 -0.34 0.68 0 0 Z " fill="#797979" transform="translate(44,80)"/>
</svg>
