<?xml version="1.0" encoding="UTF-8"?>
<svg version="1.1" xmlns="http://www.w3.org/2000/svg" width="90" height="90">
<path d="M0 0 C0.71438232 0.0714624 1.42876465 0.1429248 2.16479492 0.21655273 C12.22508367 1.11556394 22.22037935 1.11424445 32.3125 1.0625 C34.03580598 1.05747105 35.75911339 1.05291063 37.48242188 1.04882812 C41.65498409 1.037942 45.82747568 1.02075565 50 1 C51.53478568 4.06957136 50.42655754 6.9255407 49.78515625 10.16796875 C49.65056503 10.88100662 49.51597382 11.59404449 49.37730408 12.32868958 C48.94530455 14.61620598 48.50489873 16.90197346 48.0625 19.1875 C47.48354894 22.17964893 46.91315576 25.1732519 46.34765625 28.16796875 C46.21327652 28.84740036 46.07889679 29.52683197 45.94044495 30.22685242 C45.12691908 34.53810448 44.70746253 38.61603419 45 43 C45.66 43.66 46.32 44.32 47 45 C47.89232997 48.00792022 48.20762412 50.86924685 48 54 C46.0625 56.625 46.0625 56.625 43 59 C41.67912995 60.11516078 40.36717588 61.24093558 39.0625 62.375 C38.37027344 62.96925781 37.67804688 63.56351563 36.96484375 64.17578125 C35.13537992 65.8743093 33.65594352 67.59786143 32.125 69.5625 C28.01073293 74.5834926 22.11408483 77.96197172 16 80 C15.525625 80.825 15.05125 81.65 14.5625 82.5 C13 85 13 85 11.234375 85.69921875 C2.83561663 86.82982084 -6.46711993 83.16394547 -14.51171875 80.9453125 C-18.01067087 79.99710823 -21.51418629 79.19077066 -25.05859375 78.4375 C-28.08004367 77.75660988 -31.0322767 76.88400268 -34 76 C-35.21359223 70.66019417 -35.21359223 70.66019417 -34.3125 67.875 C-30.96894902 63.0984986 -28.31921832 61.49567134 -22.5625 60.4375 C-18.12480313 59.60960985 -14.60503034 58.81271598 -11 56 C-10.26465315 54.04115354 -10.26465315 54.04115354 -10.3125 51.9375 C-10 48 -10 48 -8 46 C-5.375 45.375 -5.375 45.375 -3 45 C-0.9401432 39.86119935 -0.66248629 35.33085746 -0.5859375 29.8828125 C-0.56657135 29.02565643 -0.5472052 28.16850037 -0.5272522 27.28536987 C-0.46778744 24.56534572 -0.42120431 21.84527848 -0.375 19.125 C-0.3367897 17.27341972 -0.29773622 15.42185663 -0.2578125 13.5703125 C-0.16211336 9.04701575 -0.07796094 4.52363584 0 0 Z " fill="#CDCDCD" transform="translate(37,2)"/>
<path d="M0 0 C1.33332095 2.6666419 0.67102033 4.16680303 0 7 C-0.33 7 -0.66 7 -1 7 C-1 5.35 -1 3.7 -1 2 C-11.23 2 -21.46 2 -32 2 C-32 1.67 -32 1.34 -32 1 C-9.19872014 -0.19388403 -9.19872014 -0.19388403 0 0 Z " fill="#848484" transform="translate(87,3)"/>
</svg>
