<?xml version="1.0" encoding="UTF-8"?>
<svg version="1.1" xmlns="http://www.w3.org/2000/svg" width="90" height="90">
<path d="M0 0 C0.825 0.99 1.65 1.98 2.5 3 C4.71044989 5.46373061 5.63796461 5.96794478 9 6.265625 C10.7325 6.25789062 10.7325 6.25789062 12.5 6.25 C18.91052395 6.42013068 22.58025009 7.99889442 27.625 11.6875 C28.49415039 12.32123535 28.49415039 12.32123535 29.38085938 12.96777344 C33.58881835 16.25136922 37.48368467 19.76101538 38.36657715 25.29963684 C38.51233375 28.0840718 38.5281134 30.84081382 38.49609375 33.62890625 C38.49754898 34.65499496 38.49900421 35.68108368 38.50050354 36.73826599 C38.49884679 38.90765218 38.4873107 41.07705039 38.46655273 43.24633789 C38.4378077 46.52737872 38.44590829 49.8067801 38.45898438 53.08789062 C38.44649568 63.74927411 38.30550331 73.76364326 35 84 C28.72991674 84.85375488 24.07394207 85.02464736 18 83 C18 82.34 18 81.68 18 81 C17.34 81 16.68 81 16 81 C15.6596875 80.0409375 15.6596875 80.0409375 15.3125 79.0625 C14.18088465 76.8003407 14.18088465 76.8003407 11.80078125 76.2890625 C8.49735848 75.94812347 6.08006697 76.46504495 2.875 77.3125 C1.84117188 77.57675781 0.80734375 77.84101562 -0.2578125 78.11328125 C-3.17211505 78.91845022 -3.17211505 78.91845022 -6 81 C-9.48331435 77.98112756 -10.79157144 75.43090471 -12 71 C-14.97 71.495 -14.97 71.495 -18 72 C-18.18175781 71.43410156 -18.36351563 70.86820312 -18.55078125 70.28515625 C-18.80214844 69.55167969 -19.05351562 68.81820312 -19.3125 68.0625 C-19.67794922 66.96615234 -19.67794922 66.96615234 -20.05078125 65.84765625 C-20.91240441 63.64067976 -20.91240441 63.64067976 -24 63 C-24 62.34 -24 61.68 -24 61 C-33.23341808 58.49273902 -33.23341808 58.49273902 -42.4375 60 C-43.2109375 60.495 -43.2109375 60.495 -44 61 C-45.88939163 57.22121674 -44.94814804 52.53303273 -44.83984375 48.3828125 C-44.98949546 45.22187635 -45.3219549 43.61906648 -47 41 C-45.68 41 -44.36 41 -43 41 C-42.86658203 39.73349609 -42.86658203 39.73349609 -42.73046875 38.44140625 C-41.89371281 34.4992566 -40.31604609 31.38121143 -38.3125 27.9375 C-37.98572266 27.33873047 -37.65894531 26.73996094 -37.32226562 26.12304688 C-32.91816088 18.43481049 -26.88934451 15.22840062 -18.6875 12.125 C-16.29593403 10.53062268 -15.99104447 8.66343202 -15 6 C-11.04344162 0.13337896 -6.99826495 -2.28514774 0 0 Z " fill="#CBCBCB" transform="translate(49,3)"/>
<path d="M0 0 C2.125 0.375 2.125 0.375 4 1 C3.01 1 2.02 1 1 1 C0.79375 1.556875 0.5875 2.11375 0.375 2.6875 C-1.55000774 5.92501302 -4.03850902 7.68231141 -7 10 C-7 7 -7 7 -4.625 4.4375 C-3.75875 3.633125 -2.8925 2.82875 -2 2 C-1.34 1.34 -0.68 0.68 0 0 Z " fill="#939393" transform="translate(21,19)"/>
</svg>
