<?xml version="1.0" encoding="UTF-8"?>
<svg version="1.1" xmlns="http://www.w3.org/2000/svg" width="90" height="90">
<path d="M0 0 C3.79181568 0.51240752 5.56169678 1.0532064 8 4 C9.26151669 6.23645275 10.43398382 8.44928314 11.5625 10.75 C11.86607422 11.34554688 12.16964844 11.94109375 12.48242188 12.5546875 C15.43861033 18.50570739 17.30774981 23.95067596 17 30.625 C16.81548652 34.64970029 17.30397643 37.32969899 19 41 C19.556875 40.77183594 20.11375 40.54367188 20.6875 40.30859375 C26.42305201 38.14807331 29.99591872 37.99931979 36 39 C38.64632287 38.6878236 38.64632287 38.6878236 41 38 C42.66542532 37.66051892 44.33196457 37.32641489 46 37 C46.21914063 36.21496094 46.43828125 35.42992187 46.6640625 34.62109375 C48.48708323 28.58141124 50.1953038 24.07930089 54.60546875 19.53515625 C56.63898838 17.29657582 57.79311634 14.74901278 59 12 C59.66 12 60.32 12 61 12 C61.33 8.7 61.66 5.4 62 2 C64.91517292 3.07401108 66.77810176 3.77810176 69 6 C70.6513694 13.77881903 70.37260489 21.91856616 70.60546875 29.8359375 C70.66154297 31.53363281 70.66154297 31.53363281 70.71875 33.265625 C70.74904297 34.29461914 70.77933594 35.32361328 70.81054688 36.38378906 C70.89981893 39.11092733 70.89981893 39.11092733 72 42 C73.03582583 50.97715722 69.80683844 60.89732151 64.7578125 68.27734375 C61.62939185 71.36588368 59.19204751 72.48753081 55.0625 73.9375 C48.33623358 76.3969612 42.07624743 79.36697592 35.73046875 82.6796875 C33 84 33 84 31 84 C30.67 84.66 30.34 85.32 30 86 C24.85109819 87.51438289 19.85421394 87.69078559 14.8125 85.8125 C12 84 12 84 10.0625 81.4375 C8.14729001 78.67556391 8.14729001 78.67556391 4.625 78.25 C-0.10737945 76.61814502 -0.97158694 74.35195778 -3.44921875 70.19140625 C-5.78039927 66.89721916 -8.41718556 65.75628159 -12 64 C-13.45475339 61.09049322 -12.39132266 59.47157787 -11.5 56.375 C-10.06158644 50.46584158 -9.99384607 45.43361137 -10.56030273 39.40185547 C-11.30300877 30.91116668 -10.59937383 22.48344498 -10 14 C-8.35 13.67 -6.7 13.34 -5 13 C-4.89042969 12.39671875 -4.78085938 11.7934375 -4.66796875 11.171875 C-3.09314587 3.23374341 -3.09314587 3.23374341 0 0 Z " fill="#C9C9C9" transform="translate(15,3)"/>
</svg>
