<?xml version="1.0" encoding="UTF-8"?>
<svg version="1.1" xmlns="http://www.w3.org/2000/svg" width="480" height="246">
<path d="M0 0 C2.47259878 0.18501445 4.94525504 0.36926234 7.41796875 0.55273438 C9.78911352 0.73109385 12.16020934 0.91010551 14.53125 1.08984375 C15.61772827 1.17217758 16.70420654 1.25451141 17.8236084 1.33934021 C22.13341182 1.67638035 26.42005996 2.02539349 30.70239258 2.62158203 C34.91972161 3.11123142 38.99262633 3.15384599 43.23046875 3.08984375 C44.92390472 3.0753575 46.61734586 3.06146506 48.31079102 3.0480957 C49.62746262 3.03560287 49.62746262 3.03560287 50.97073364 3.02285767 C68.90743659 2.87194621 86.64050384 3.23565533 104.5 5.0625 C105.82813721 5.18334961 105.82813721 5.18334961 107.18310547 5.30664062 C119.08421041 6.46450964 119.08421041 6.46450964 122.3515625 10.15234375 C123.625 12.5625 123.625 12.5625 124.55859375 14.97265625 C125.42890025 17.43091098 125.42890025 17.43091098 128.6875 19 C129.615625 19.350625 130.54375 19.70125 131.5 20.0625 C132.16 20.7225 132.82 21.3825 133.5 22.0625 C135.43055476 22.45817162 135.43055476 22.45817162 137.640625 22.5546875 C138.46433594 22.62042969 139.28804688 22.68617187 140.13671875 22.75390625 C141.86282476 22.87517229 143.58940529 22.98988298 145.31640625 23.09765625 C150.76016046 23.54636383 154.16180871 24.46085521 158.5 28.0625 C159.11875 28.866875 159.7375 29.67125 160.375 30.5 C162.41824688 32.96391535 163.71499965 33.85854186 166.4375 35.375 C169.70331314 37.26604989 171.18358798 38.85628516 172.9375 42.1875 C174.8309111 45.60971262 176.18106133 46.65437205 179.9375 47.75 C181.09378906 48.04390625 181.09378906 48.04390625 182.2734375 48.34375 C185.77289225 49.47339855 187.85748158 51.55549535 190.5 54.0625 C190.17 55.0525 189.84 56.0425 189.5 57.0625 C190.06642646 59.16880946 190.72550781 61.25083912 191.4375 63.3125 C193.01664251 68.16931286 193.97184019 71.99021796 193.5 77.0625 C194.16 77.0625 194.82 77.0625 195.5 77.0625 C199.74658616 82.27092665 202.87556826 88.42754074 206.14379883 94.27294922 C213.26469092 107.03283497 213.26469092 107.03283497 224.5 116.0625 C223.71625 116.743125 222.9325 117.42375 222.125 118.125 C219.04149479 121.57558916 218.45642485 123.62816662 217.5 128.0625 C219.81 130.0425 222.12 132.0225 224.5 134.0625 C224.0206753 138.37642226 222.7542015 140.22819547 219.5 143.0625 C219.83 143.7225 220.16 144.3825 220.5 145.0625 C221.180625 144.32 221.180625 144.32 221.875 143.5625 C223.5 142.0625 223.5 142.0625 225.5 142.0625 C226.5070238 147.09761899 226.47387813 150.30197038 224.5 155.0625 C225.923125 155.4028125 225.923125 155.4028125 227.375 155.75 C230.5 157.0625 230.5 157.0625 231.875 159.6875 C232.08125 160.47125 232.2875 161.255 232.5 162.0625 C231.51 163.0525 230.52 164.0425 229.5 165.0625 C227.85 163.7425 226.2 162.4225 224.5 161.0625 C224.5 162.0525 224.5 163.0425 224.5 164.0625 C225.593125 164.495625 226.68625 164.92875 227.8125 165.375 C230.56758772 166.56292244 232.72133745 167.55144698 234.5 170.0625 C234.5 171.0525 234.5 172.0425 234.5 173.0625 C233.84 173.3925 233.18 173.7225 232.5 174.0625 C232.17 175.0525 231.84 176.0425 231.5 177.0625 C227.04285714 181.0625 227.04285714 181.0625 224.5 181.0625 C224.45875 182.361875 224.4175 183.66125 224.375 185 C223.85709308 189.98289237 221.89036209 193.00770305 218.875 196.921875 C217.35792876 198.97312947 217.35792876 198.97312947 217.11694336 201.37695312 C215.89772988 206.68417446 212.51408052 210.51320775 208.5 214.0625 C204.25341804 215.94025504 200.01209416 216.62830144 195.4375 217.3125 C192.86455119 217.76674504 190.29163573 218.22117902 187.71875 218.67578125 C186.36860814 218.89996646 185.01834567 219.12342643 183.66796875 219.34619141 C179.37327263 220.06751067 175.10962784 220.91898168 170.84375 221.79296875 C169.42459025 222.08120096 168.00540112 222.36928856 166.58618164 222.65722656 C164.52247895 223.0761735 162.45889903 223.49561508 160.39596558 223.91833496 C158.48318009 224.30715753 156.56780127 224.6831556 154.65234375 225.05859375 C153.0125354 225.38621704 153.0125354 225.38621704 151.33959961 225.72045898 C146.53074236 226.29970488 144.14414955 225.04540898 140.33984375 222.18359375 C139.54513672 221.59126953 138.75042969 220.99894531 137.93164062 220.38867188 C137.10857422 219.76541016 136.28550781 219.14214844 135.4375 218.5 C132.985079 216.66316646 130.53169497 214.82792329 128.0715332 213.00146484 C126.32714111 211.68617366 124.60462692 210.34145405 122.90307617 208.97119141 C115.97551915 203.55577923 109.36467429 200.90768565 100.9375 198.5625 C99.64436813 198.18475865 98.35189853 197.80474371 97.06005859 197.42260742 C94.44069817 196.65009931 91.81868922 195.8879437 89.19384766 195.13427734 C84.96946292 193.9085636 80.77118656 192.61092934 76.57348633 191.29736328 C67.2341159 188.37576508 57.86187676 185.57036889 48.4765625 182.80078125 C11.22908957 171.80462961 11.22908957 171.80462961 -3.21374512 167.06439209 C-5.06790474 166.45622726 -6.92502682 165.85711752 -8.78222656 165.25830078 C-9.87760742 164.8920459 -10.97298828 164.52579102 -12.1015625 164.1484375 C-13.49882568 163.6851001 -13.49882568 163.6851001 -14.92431641 163.21240234 C-19.51934868 161.16097087 -22.83127821 157.91100234 -26.0625 154.125 C-26.62066406 153.47660156 -27.17882812 152.82820312 -27.75390625 152.16015625 C-29.5 150.0625 -29.5 150.0625 -31.171875 147.2734375 C-33.44264066 144.62543439 -33.44264066 144.62543439 -37.44921875 144.94140625 C-39.03230784 145.14225721 -40.61192213 145.37188626 -42.1875 145.625 C-43.01805908 145.73634277 -43.84861816 145.84768555 -44.7043457 145.96240234 C-46.4358122 146.19501433 -48.16591122 146.43802008 -49.89453125 146.69091797 C-53.16242442 147.15697245 -56.43682015 147.53680061 -59.71679688 147.90649414 C-62.97958807 148.27758828 -66.23965454 148.67056787 -69.5 149.0625 C-69.58040527 150.03074707 -69.66081055 150.99899414 -69.74365234 151.99658203 C-70.04561362 155.60905542 -70.35731452 159.22063498 -70.671875 162.83203125 C-70.80634591 164.39137658 -70.93821955 165.95094825 -71.06738281 167.51074219 C-71.2541377 169.76042025 -71.4504019 172.00910275 -71.6484375 174.2578125 C-71.70373627 174.9486795 -71.75903503 175.63954651 -71.81600952 176.35134888 C-72.19323783 180.5084695 -72.79441876 184.23760743 -74.5 188.0625 C-76.21728516 189.44287109 -76.21728516 189.44287109 -78.2890625 190.3359375 C-79.05806885 190.68156738 -79.8270752 191.02719727 -80.61938477 191.38330078 C-81.44623779 191.73118652 -82.27309082 192.07907227 -83.125 192.4375 C-84.8560866 193.21216248 -86.58654573 193.98822849 -88.31640625 194.765625 C-89.18668457 195.14912109 -90.05696289 195.53261719 -90.95361328 195.92773438 C-94.69888419 197.59676785 -98.38902015 199.36654612 -102.0625 201.1875 C-102.72741455 201.5167749 -103.3923291 201.8460498 -104.07739258 202.18530273 C-107.72661681 204.03542587 -111.04242345 206.04744258 -114.3125 208.5 C-122.83846102 214.790583 -133.09386633 218.76568565 -142.79296875 222.91015625 C-143.7994043 223.34026001 -143.7994043 223.34026001 -144.82617188 223.77905273 C-146.14497659 224.34071182 -147.46528637 224.89885066 -148.78710938 225.45336914 C-152.71917384 227.14425566 -156.27330251 229.10406489 -159.88305664 231.39819336 C-167.7632646 236.38254914 -173.28809337 237.07048978 -182.5 236.0625 C-182.5 232.0625 -182.5 228.0625 -182.5 224.0625 C-182.63181797 221.93658458 -182.7795268 219.81163202 -182.9375 217.6875 C-183.01871094 216.56601563 -183.09992188 215.44453125 -183.18359375 214.2890625 C-183.45889962 211.48162238 -183.88709626 208.81284114 -184.5 206.0625 C-185.2425 206.10375 -185.985 206.145 -186.75 206.1875 C-190.73121988 206.00653546 -192.65726654 204.96141569 -195.375 202.0625 C-197.38574439 199.83795108 -197.38574439 199.83795108 -200.375 199.375 C-205.86721411 197.06827007 -208.19745135 191.94132129 -210.578125 186.6796875 C-212.28570735 182.10026211 -212.89965121 178.86130416 -211.5 174.0625 C-211.26990234 172.94294922 -211.26990234 172.94294922 -211.03515625 171.80078125 C-209.54610689 165.75699267 -209.54610689 165.75699267 -206.62890625 163.8203125 C-203.44816803 162.59470695 -200.92198561 162.0625 -197.5 162.0625 C-198.16 160.7425 -198.82 159.4225 -199.5 158.0625 C-195.17265609 155.83326223 -192.21599818 156.13779447 -187.5 157.0625 C-187.273125 156.44375 -187.04625 155.825 -186.8125 155.1875 C-185.12070165 152.44839791 -183.50755839 152.01225528 -180.5 151.0625 C-180.83 150.0725 -181.16 149.0825 -181.5 148.0625 C-179.95691115 144.9763223 -179.33609977 143.85599547 -176.5 142.0625 C-170.60666226 140.94269405 -164.70142587 141.00103309 -158.72265625 141.16796875 C-154.65288297 141.03477617 -153.4091854 139.81443213 -150.5 137.0625 C-149.81808594 136.62164062 -149.13617188 136.18078125 -148.43359375 135.7265625 C-146.01391599 133.64417315 -145.766437 132.36296749 -145.25 129.25 C-145.09917969 128.36570313 -144.94835937 127.48140625 -144.79296875 126.5703125 C-144.42586173 123.91410081 -144.42586173 123.91410081 -144.5625 120.625 C-144.5 118.0625 -144.5 118.0625 -143.3125 116.4375 C-141.5 115.0625 -141.5 115.0625 -139 113.625 C-135.56049159 110.09950387 -135.13194069 106.58544491 -134.17578125 101.83984375 C-133.5 99.0625 -133.5 99.0625 -131.5 96.0625 C-131.83 95.0725 -132.16 94.0825 -132.5 93.0625 C-129.63750499 87.85434936 -126.11045397 82.46728315 -120.6875 79.75 C-116.85036716 77.71857673 -116.22093258 75.9345983 -114.5 72.0625 C-113.51 71.7325 -112.52 71.4025 -111.5 71.0625 C-111.520625 69.94875 -111.54125 68.835 -111.5625 67.6875 C-111.5 64.0625 -111.5 64.0625 -110.5 62.0625 C-111.28375 61.753125 -112.0675 61.44375 -112.875 61.125 C-117.40082449 59.29311866 -117.40082449 59.29311866 -118.31640625 57.1640625 C-119.68653585 52.61609304 -120.63322316 48.44014194 -120.875 43.6875 C-121.36763583 36.4621745 -124.10613889 29.67080772 -128.1015625 23.6484375 C-129.8204374 20.46995933 -130.14992342 17.63328113 -130.5 14.0625 C-94.47540444 -8.68073865 -40.7663751 -3.18290259 0 0 Z " fill="#D1D1D1" transform="translate(228.5,9.9375)"/>
<path d="M0 0 C2.47259878 0.18501445 4.94525504 0.36926234 7.41796875 0.55273438 C9.78911352 0.73109385 12.16020934 0.91010551 14.53125 1.08984375 C16.16096741 1.2133445 16.16096741 1.2133445 17.8236084 1.33934021 C22.13341182 1.67638035 26.42005996 2.02539349 30.70239258 2.62158203 C34.91972161 3.11123142 38.99262633 3.15384599 43.23046875 3.08984375 C44.92390472 3.0753575 46.61734586 3.06146506 48.31079102 3.0480957 C49.18857208 3.03976715 50.06635315 3.0314386 50.97073364 3.02285767 C107.44826128 2.54768082 107.44826128 2.54768082 120.5 8.0625 C122.59676661 11.28962227 123.5 13.20704185 123.5 17.0625 C122.18 17.0625 120.86 17.0625 119.5 17.0625 C118.56576355 14.05218256 118.45550089 13.19599732 119.5 10.0625 C115.3550518 9.5754789 111.20890529 9.09944233 107.0625 8.625 C105.34450195 8.42293945 105.34450195 8.42293945 103.59179688 8.21679688 C86.52648357 6.2786311 69.67488209 5.93842813 52.51660156 6.15844727 C41.65859088 6.2878063 31.10298576 5.87839672 20.31835938 4.6081543 C-11.27133963 0.90643857 -42.95324004 0.09424153 -74.65698242 2.3503418 C-81.29292495 2.8203094 -87.8471495 3.17908884 -94.5 3.0625 C-94.17 2.4025 -93.84 1.7425 -93.5 1.0625 C-91.56079102 0.66772461 -91.56079102 0.66772461 -89.00390625 0.46484375 C-87.59153687 0.34665283 -87.59153687 0.34665283 -86.15063477 0.22607422 C-84.62200806 0.11416748 -84.62200806 0.11416748 -83.0625 0 C-81.49230103 -0.1235083 -81.49230103 -0.1235083 -79.89038086 -0.24951172 C-76.7609869 -0.49043617 -73.63082111 -0.71598929 -70.5 -0.9375 C-69.27990234 -1.02862061 -69.27990234 -1.02862061 -68.03515625 -1.12158203 C-45.2780681 -2.79636774 -22.71898541 -1.7738226 0 0 Z " fill="#818181" transform="translate(228.5,9.9375)"/>
<path d="M0 0 C0.99 0 1.98 0 3 0 C2.34 2.97 1.68 5.94 1 9 C3.31 10.98 5.62 12.96 8 15 C7.5206753 19.31392226 6.2542015 21.16569547 3 24 C3.33 24.66 3.66 25.32 4 26 C4.45375 25.505 4.9075 25.01 5.375 24.5 C7 23 7 23 9 23 C10.125 29.625 10.125 29.625 9 33 C8.67 33 8.34 33 8 33 C7.67 30.69 7.34 28.38 7 26 C6.01 26.99 5.02 27.98 4 29 C3.01 28.67 2.02 28.34 1 28 C0.9175 27.071875 0.835 26.14375 0.75 25.1875 C0.29742448 21.91490121 0.29742448 21.91490121 -2.0625 20.125 C-2.701875 19.75375 -3.34125 19.3825 -4 19 C-3.505 17.515 -3.505 17.515 -3 16 C-1.04649045 9.91855646 -1.04649045 9.91855646 -2 4 C-1.34 3.34 -0.68 2.68 0 2 C0 1.34 0 0.68 0 0 Z " fill="#A5A5A5" transform="translate(445,129)"/>
<path d="M0 0 C2.34245797 2.2714744 4.57959878 4.45441728 6.57421875 7.04296875 C10.2912708 11.79975564 12.88077131 13.89346677 18.91015625 14.76953125 C19.94462891 14.88361328 19.94462891 14.88361328 21 15 C22.010625 15.20625 23.02125 15.4125 24.0625 15.625 C24.701875 15.74875 25.34125 15.8725 26 16 C26 16.66 26 17.32 26 18 C26.66644531 18.17015625 27.33289063 18.3403125 28.01953125 18.515625 C34.83661993 20.30809028 41.41451106 22.49063574 48 25 C48 24.34 48 23.68 48 23 C50.31 23.33 52.62 23.66 55 24 C55.495 25.485 55.495 25.485 56 27 C59.51190809 28.22969878 59.51190809 28.22969878 63 29 C63 29.33 63 29.66 63 30 C57.01547472 30.34745293 52.23257945 29.12880225 46.55859375 27.296875 C45.67269058 27.01781311 44.78678741 26.73875122 43.8740387 26.45123291 C42.00926365 25.86093495 40.14607563 25.26560251 38.28442383 24.66552734 C35.44732112 23.75315832 32.60419202 22.86189281 29.75976562 21.97265625 C27.94230861 21.39448417 26.1252375 20.81509733 24.30859375 20.234375 C23.04274696 19.83880402 23.04274696 19.83880402 21.75132751 19.4352417 C14.46200434 17.05998575 9.2783899 13.689516 4.125 7.9375 C3.34382812 7.08027344 2.56265625 6.22304687 1.7578125 5.33984375 C0 3 0 3 0 0 Z " fill="#818181" transform="translate(198,156)"/>
<path d="M0 0 C0.99 0.33 1.98 0.66 3 1 C0.59793404 3.74521825 -1.20259661 4.9358161 -4.86328125 5.23046875 C-6.96298052 5.20226766 -9.0625496 5.14083943 -11.16015625 5.04296875 C-13.72464643 5.00416629 -15.55665924 5.34278904 -18 6 C-20.75 5.5625 -20.75 5.5625 -23 5 C-23 5.66 -23 6.32 -23 7 C-23.66 7 -24.32 7 -25 7 C-25 8.98 -25 10.96 -25 13 C-26.98 13.66 -28.96 14.32 -31 15 C-31 15.66 -31 16.32 -31 17 C-31.66 17 -32.32 17 -33 17 C-33.33 17.99 -33.66 18.98 -34 20 C-40.75 20.125 -40.75 20.125 -43 19 C-42.814375 19.61875 -42.62875 20.2375 -42.4375 20.875 C-42 23 -42 23 -43 25 C-45.52495306 25.81047876 -48.07354802 26.40749492 -50.65234375 27.0234375 C-53.15664224 27.79959922 -53.15664224 27.79959922 -54.31640625 30.1015625 C-54.54199219 30.72804687 -54.76757812 31.35453125 -55 32 C-55 30.02 -55 28.04 -55 26 C-53.73160474 25.49384702 -52.46016898 24.99530901 -51.1875 24.5 C-50.47980469 24.2215625 -49.77210937 23.943125 -49.04296875 23.65625 C-47 23 -47 23 -44 23 C-44.66 21.68 -45.32 20.36 -46 19 C-41.67265609 16.77076223 -38.71599818 17.07529447 -34 18 C-33.6596875 17.071875 -33.6596875 17.071875 -33.3125 16.125 C-31.62070165 13.38589791 -30.00755839 12.94975528 -27 12 C-27.33 11.01 -27.66 10.02 -28 9 C-26.45691115 5.9138223 -25.83609977 4.79349547 -23 3 C-17.09229651 1.87746438 -11.17267469 1.93335354 -5.1796875 2.1171875 C-1.90389948 2.35762233 -1.90389948 2.35762233 0 0 Z " fill="#727272" transform="translate(75,149)"/>
<path d="M0 0 C3.79039298 1.81938863 7.43082843 3.77768563 11 6 C11.33 6.99 11.66 7.98 12 9 C12.886875 8.979375 13.77375 8.95875 14.6875 8.9375 C19.24414565 9.02347445 23.0843402 9.56959047 27 12 C27.99 13.485 27.99 13.485 29 15 C28.34 15 27.68 15 27 15 C27 16.65 27 18.3 27 20 C30.96 19.505 30.96 19.505 35 19 C34.67 19.66 34.34 20.32 34 21 C30.8203125 21.89453125 30.8203125 21.89453125 27 22 C23.9296875 20.26171875 23.9296875 20.26171875 20.875 17.6875 C19.75320596 16.76359175 18.63079037 15.84043774 17.5078125 14.91796875 C16.93579102 14.43763184 16.36376953 13.95729492 15.77441406 13.46240234 C12.29524719 10.59500972 8.65657533 7.92979457 5.05029297 5.2253418 C1.11054043 2.22108086 1.11054043 2.22108086 0 0 Z " fill="#A4A4A4" transform="translate(347,214)"/>
<path d="M0 0 C1.32 0 2.64 0 4 0 C2.7818275 3.65451749 0.75802887 5.46395882 -2 8 C-2.67289063 8.62003906 -3.34578125 9.24007812 -4.0390625 9.87890625 C-9.72916667 15 -9.72916667 15 -12 15 C-12 15.99 -12 16.98 -12 18 C-11.34 18.33 -10.68 18.66 -10 19 C-10.33 20.32 -10.66 21.64 -11 23 C-11.99 23 -12.98 23 -14 23 C-16.21399303 26.79541663 -17.00980198 30.75629421 -18 35 C-18.33 35 -18.66 35 -19 35 C-19.25 27.375 -19.25 27.375 -17 24 C-17.33 23.01 -17.66 22.02 -18 21 C-15.13750499 15.79184936 -11.61045397 10.40478315 -6.1875 7.6875 C-2.39064423 5.67739989 -1.52112541 3.93703046 0 0 Z " fill="#919191" transform="translate(114,82)"/>
<path d="M0 0 C0.33 0.66 0.66 1.32 1 2 C2.423125 2.185625 2.423125 2.185625 3.875 2.375 C7 3 7 3 9 4.75 C10 7 10 7 9.1875 9.75 C8.795625 10.4925 8.40375 11.235 8 12 C6.02 10.68 4.04 9.36 2 8 C2 8.99 2 9.98 2 11 C3.6396875 11.6496875 3.6396875 11.6496875 5.3125 12.3125 C8.07296721 13.49715394 10.17229938 14.52722858 12 17 C12 17.66 12 18.32 12 19 C10.68 18.34 9.36 17.68 8 17 C8 16.34 8 15.68 8 15 C7.05125 14.87625 6.1025 14.7525 5.125 14.625 C2 14 2 14 0 12 C0.32971479 8.70285207 0.6226839 7.3773161 3 5 C2.01 4.67 1.02 4.34 0 4 C0 2.68 0 1.36 0 0 Z " fill="#676767" transform="translate(451,163)"/>
<path d="M0 0 C2.78218319 3.15314094 3.383252 5.2685384 3.5625 9.4375 C3.74632388 13.4426325 4.50223156 16.30069241 6 20 C6 21.32 6 22.64 6 24 C7.175625 24.433125 7.175625 24.433125 8.375 24.875 C11 26 11 26 13 28 C13.1953125 30.1640625 13.1953125 30.1640625 13.125 32.625 C13.10695313 33.44226563 13.08890625 34.25953125 13.0703125 35.1015625 C13.04710938 35.72804687 13.02390625 36.35453125 13 37 C12.34 37 11.68 37 11 37 C9.875 30.25 9.875 30.25 11 28 C9.824375 27.5359375 9.824375 27.5359375 8.625 27.0625 C4.10894637 25.23457353 4.10894637 25.23457353 3.18359375 23.2421875 C0.74856995 15.51640519 0.3113694 8.05265679 0 0 Z " fill="#505050" transform="translate(107,44)"/>
<path d="M0 0 C1.11841368 2.08770553 1.9708176 3.85408801 2.4375 6.1875 C2.623125 6.785625 2.80875 7.38375 3 8 C3.99 8.33 4.98 8.66 6 9 C6 10.32 6 11.64 6 13 C7.11375 13.103125 8.2275 13.20625 9.375 13.3125 C11.169375 13.6528125 11.169375 13.6528125 13 14 C13.99 15.485 13.99 15.485 15 17 C17.11184094 17.97348889 17.11184094 17.97348889 19.5 18.625 C23.91803279 19.95901639 23.91803279 19.95901639 26 21 C26 22.65 26 24.3 26 26 C25.34 26 24.68 26 24 26 C24 24.68 24 23.36 24 22 C23.2575 22.04125 22.515 22.0825 21.75 22.125 C17.76878012 21.94403546 15.84273346 20.89891569 13.125 18 C11.10329056 15.77400993 11.10329056 15.77400993 8.0625 15.25 C3.60618084 13.43109422 1.85941887 10.34669347 0 6 C-0.3125 2.5 -0.3125 2.5 0 0 Z " fill="#888888" transform="translate(20,194)"/>
<path d="M0 0 C3.3 0.33 6.6 0.66 10 1 C10 1.66 10 2.32 10 3 C-12.80127986 7.77553612 -12.80127986 7.77553612 -22 7 C-22 6.67 -22 6.34 -22 6 C-20.02 6 -18.04 6 -16 6 C-16 5.34 -16 4.68 -16 4 C-11.62036055 1.87274655 -11.62036055 1.87274655 -8.5625 2.5 C-5.21786731 3.15261126 -3.12056655 2.23371236 0 1 C0 0.67 0 0.34 0 0 Z " fill="#828282" transform="translate(409,225)"/>
<path d="M0 0 C6.75 0.875 6.75 0.875 9 2 C9 1.34 9 0.68 9 0 C11.31 0.33 13.62 0.66 16 1 C16.33 1.99 16.66 2.98 17 4 C20.51190809 5.22969878 20.51190809 5.22969878 24 6 C24 6.33 24 6.66 24 7 C18.39192987 7.27966754 13.93926949 6.36706256 8.625 4.625 C7.90183594 4.40328125 7.17867188 4.1815625 6.43359375 3.953125 C4.59994838 3.36828501 2.79636738 2.69091053 1 2 C0.67 1.34 0.34 0.68 0 0 Z " fill="#909090" transform="translate(317,203)"/>
<path d="M0 0 C0.33 0.66 0.66 1.32 1 2 C1.99 2 2.98 2 4 2 C4 2.66 4 3.32 4 4 C2.75539217 4.67667998 1.50403104 5.34094719 0.25 6 C-0.44609375 6.37125 -1.1421875 6.7425 -1.859375 7.125 C-4 8 -4 8 -8 8 C-8.33 6.35 -8.66 4.7 -9 3 C-2.25 2 -2.25 2 0 2 C0 1.34 0 0.68 0 0 Z " fill="#BBBBBB" transform="translate(75,232)"/>
<path d="M0 0 C1.32 0 2.64 0 4 0 C2.7818275 3.65451749 0.75802887 5.46395882 -2 8 C-2.67289063 8.62003906 -3.34578125 9.24007812 -4.0390625 9.87890625 C-9.72916667 15 -9.72916667 15 -12 15 C-12.33 15.66 -12.66 16.32 -13 17 C-12.7734375 14.68359375 -12.7734375 14.68359375 -12 12 C-10.0390625 10.41015625 -10.0390625 10.41015625 -7.625 9.0625 C-3.57366889 6.58275043 -1.64119526 4.59534672 0 0 Z " fill="#6A6A6A" transform="translate(114,82)"/>
<path d="M0 0 C0.53625 0.226875 1.0725 0.45375 1.625 0.6875 C-4.125 3.6875 -4.125 3.6875 -6.375 3.6875 C-6.09785156 4.30238281 -5.82070312 4.91726562 -5.53515625 5.55078125 C-5.17292969 6.35902344 -4.81070313 7.16726562 -4.4375 8 C-4.07785156 8.80050781 -3.71820313 9.60101563 -3.34765625 10.42578125 C-2.375 12.6875 -2.375 12.6875 -1.375 15.6875 C-4.375 14.6875 -4.375 14.6875 -6 12.5625 C-7.58438865 9.24968738 -8.01839286 6.32489284 -8.375 2.6875 C-2.95961538 -0.38942308 -2.95961538 -0.38942308 0 0 Z " fill="#6C6C6C" transform="translate(106.375,21.3125)"/>
<path d="M0 0 C1.08667969 0.29197266 1.08667969 0.29197266 2.1953125 0.58984375 C2.74960938 0.74582031 3.30390625 0.90179688 3.875 1.0625 C3.875 1.7225 3.875 2.3825 3.875 3.0625 C0.50402617 4.56071059 -1.32942119 5.0625 -5.125 5.0625 C-5.455 3.4125 -5.785 1.7625 -6.125 0.0625 C-3.57797384 -1.21101308 -2.6967055 -0.73941925 0 0 Z " fill="#ABABAB" transform="translate(88.125,226.9375)"/>
<path d="M0 0 C0.66 0 1.32 0 2 0 C3.125 4.75 3.125 4.75 2 7 C-0.52495306 7.81047876 -3.07354802 8.40749492 -5.65234375 9.0234375 C-8.15664224 9.79959922 -8.15664224 9.79959922 -9.31640625 12.1015625 C-9.54199219 12.72804687 -9.76757812 13.35453125 -10 14 C-10 12.02 -10 10.04 -10 8 C-8.73160474 7.49384702 -7.46016898 6.99530901 -6.1875 6.5 C-5.12595703 6.08234375 -5.12595703 6.08234375 -4.04296875 5.65625 C-2 5 -2 5 1 5 C0.34 3.68 -0.32 2.36 -1 1 C-0.67 0.67 -0.34 0.34 0 0 Z " fill="#767676" transform="translate(30,167)"/>
<path d="M0 0 C0.33 0.66 0.66 1.32 1 2 C-3.43076923 7.78461538 -3.43076923 7.78461538 -6.3125 8.875 C-7.1478125 8.936875 -7.1478125 8.936875 -8 9 C-7.67 11.31 -7.34 13.62 -7 16 C-7.99 15.67 -8.98 15.34 -10 15 C-10.37104072 9.43438914 -10.37104072 9.43438914 -8.71875 7.5 C-8.1515625 7.005 -7.584375 6.51 -7 6 C-6.39800781 5.47019531 -5.79601562 4.94039063 -5.17578125 4.39453125 C-4.56089844 3.87246094 -3.94601563 3.35039063 -3.3125 2.8125 C-2.68988281 2.28269531 -2.06726563 1.75289063 -1.42578125 1.20703125 C-0.95527344 0.80871094 -0.48476562 0.41039063 0 0 Z " fill="#747474" transform="translate(94,119)"/>
<path d="M0 0 C0.33 0.66 0.66 1.32 1 2 C2.423125 2.185625 2.423125 2.185625 3.875 2.375 C7 3 7 3 9 4.75 C10 7 10 7 9.1875 9.75 C8.795625 10.4925 8.40375 11.235 8 12 C5.53721199 9.53721199 5.00228745 7.29323018 4 4 C2.68 4 1.36 4 0 4 C0 2.68 0 1.36 0 0 Z " fill="#9A9A9A" transform="translate(451,163)"/>
<path d="M0 0 C3.3 0 6.6 0 10 0 C13 5.625 13 5.625 13 9 C11.68 9 10.36 9 9 9 C8.06576355 5.98968256 7.95550089 5.13349732 9 2 C6.03 1.67 3.06 1.34 0 1 C0 0.67 0 0.34 0 0 Z " fill="#838383" transform="translate(339,18)"/>
<path d="M0 0 C0.66 0 1.32 0 2 0 C2 1.32 2 2.64 2 4 C-2.22222222 8 -2.22222222 8 -5 8 C-5 9.65 -5 11.3 -5 13 C-5.66 13 -6.32 13 -7 13 C-7.33 11.02 -7.66 9.04 -8 7 C-7.01 7 -6.02 7 -5 7 C-5 6.01 -5 5.02 -5 4 C-3.35 3.67 -1.7 3.34 0 3 C0 2.01 0 1.02 0 0 Z " fill="#8B8B8B" transform="translate(458,183)"/>
<path d="M0 0 C2.31 0.33 4.62 0.66 7 1 C7.33 1.99 7.66 2.98 8 4 C11.51190809 5.22969878 11.51190809 5.22969878 15 6 C15 6.33 15 6.66 15 7 C9.80790596 7.21192221 5.873261 6.5912689 1 5 C0.67 3.35 0.34 1.7 0 0 Z " fill="#A6A6A6" transform="translate(246,179)"/>
<path d="M0 0 C0.99 0 1.98 0 3 0 C2.34 2.97 1.68 5.94 1 9 C2.98 10.65 4.96 12.3 7 14 C6.67 14.99 6.34 15.98 6 17 C6 16.34 6 15.68 6 15 C5.1028125 14.566875 5.1028125 14.566875 4.1875 14.125 C2 13 2 13 -1 11 C-1.125 8.5 -1.125 8.5 -1 6 C-1.33 5.34 -1.66 4.68 -2 4 C-1.34 3.34 -0.68 2.68 0 2 C0 1.34 0 0.68 0 0 Z " fill="#797979" transform="translate(445,129)"/>
<path d="M0 0 C0.33 0.99 0.66 1.98 1 3 C2.32488113 3.36548445 3.66018514 3.6937566 5 4 C7.25 5 7.25 5 9 7 C9.34411204 10.02711063 9.22892024 12.96680679 9 16 C8.34 16 7.68 16 7 16 C5.875 9.25 5.875 9.25 7 7 C6.21625 6.690625 5.4325 6.38125 4.625 6.0625 C2 5 2 5 0 4 C0 2.68 0 1.36 0 0 Z " fill="#6A6A6A" transform="translate(111,65)"/>
<path d="M0 0 C0.66 0.33 1.32 0.66 2 1 C2 1.66 2 2.32 2 3 C5.3 3.99 8.6 4.98 12 6 C12 6.33 12 6.66 12 7 C5.83381819 7.40214229 0.82254243 5.96818336 -5 4 C-5 3.34 -5 2.68 -5 2 C-2.625 0.9375 -2.625 0.9375 0 0 Z " fill="#7F7F7F" transform="translate(299,194)"/>
<path d="M0 0 C0.33 0.66 0.66 1.32 1 2 C2.32 2 3.64 2 5 2 C5 2.66 5 3.32 5 4 C1.86501708 5.85776765 -0.37471432 6.20140476 -4 6 C-4.33 5.01 -4.66 4.02 -5 3 C-4.34 2.67 -3.68 2.34 -3 2 C-2.01 1.34 -1.02 0.68 0 0 Z " fill="#A1A1A1" transform="translate(134,201)"/>
<path d="M0 0 C1.32 0 2.64 0 4 0 C4 0.66 4 1.32 4 2 C3.34 2 2.68 2 2 2 C1.95101562 2.85464844 1.90203125 3.70929688 1.8515625 4.58984375 C1.77679688 5.69457031 1.70203125 6.79929688 1.625 7.9375 C1.52058594 9.59072266 1.52058594 9.59072266 1.4140625 11.27734375 C1.27742187 12.17582031 1.14078125 13.07429687 1 14 C0.01 14.495 0.01 14.495 -1 15 C-1.18451025 4.44191344 -1.18451025 4.44191344 0 0 Z " fill="#757575" transform="translate(157,157)"/>
<path d="M0 0 C1.11841368 2.08770553 1.9708176 3.85408801 2.4375 6.1875 C2.623125 6.785625 2.80875 7.38375 3 8 C3.99 8.33 4.98 8.66 6 9 C6 10.32 6 11.64 6 13 C7.65 13 9.3 13 11 13 C11 13.33 11 13.66 11 14 C8.3125 14.5 8.3125 14.5 5 14 C1.72470286 10.59775336 0.10555268 7.18218999 -0.3125 2.5 C-0.209375 1.675 -0.10625 0.85 0 0 Z " fill="#575757" transform="translate(20,194)"/>
<path d="M0 0 C0.66 0 1.32 0 2 0 C2 2.31 2 4.62 2 7 C2.66 7 3.32 7 4 7 C4.33 8.65 4.66 10.3 5 12 C4.67 11.34 4.34 10.68 4 10 C3.01 10.33 2.02 10.66 1 11 C0.34 9.68 -0.32 8.36 -1 7 C-0.67 6.67 -0.34 6.34 0 6 C0.04080783 4.00041636 0.04254356 1.99954746 0 0 Z " fill="#868686" transform="translate(420,80)"/>
<path d="M0 0 C0.66 0.33 1.32 0.66 2 1 C-0.15317287 9.35010941 -0.15317287 9.35010941 -3.6875 12.0625 C-4.450625 12.371875 -5.21375 12.68125 -6 13 C-5.71382813 12.43796875 -5.42765625 11.8759375 -5.1328125 11.296875 C-3.98584069 8.97129077 -2.92160206 6.62229799 -1.875 4.25 C-1.52179688 3.45078125 -1.16859375 2.6515625 -0.8046875 1.828125 C-0.53914063 1.22484375 -0.27359375 0.6215625 0 0 Z " fill="#646464" transform="translate(85,136)"/>
<path d="M0 0 C1.32 0.33 2.64 0.66 4 1 C4 2.32 4 3.64 4 5 C1.69 5.33 -0.62 5.66 -3 6 C-2.34 5.67 -1.68 5.34 -1 5 C-0.34444881 2.47266765 -0.34444881 2.47266765 0 0 Z " fill="#A4A4A4" transform="translate(99,220)"/>
<path d="M0 0 C0 0.66 0 1.32 0 2 C-4.94367454 3.20577428 -8.20862412 2.6290678 -13 1 C-13 0.67 -13 0.34 -13 0 C-8.34462607 -0.83796731 -4.62921525 -1.0161692 0 0 Z " fill="#B5B5B5" transform="translate(297,194)"/>
<path d="M0 0 C0.33 0.66 0.66 1.32 1 2 C3.97 2 6.94 2 10 2 C10 2.33 10 2.66 10 3 C5.59085217 4.10228696 1.51617599 4.07654536 -3 4 C-3 3.01 -3 2.02 -3 1 C-2.01 0.67 -1.02 0.34 0 0 Z " fill="#9E9E9E" transform="translate(427,221)"/>
<path d="M0 0 C0.33 0.66 0.66 1.32 1 2 C1.99 2 2.98 2 4 2 C4 2.66 4 3.32 4 4 C1.09399739 5.25664978 -0.79604584 6 -4 6 C-4 5.01 -4 4.02 -4 3 C-2.68 2.67 -1.36 2.34 0 2 C0 1.34 0 0.68 0 0 Z " fill="#969696" transform="translate(75,232)"/>
<path d="M0 0 C2.35981813 0.93578995 4.69631264 1.93347808 7 3 C5 5 5 5 2.375 5.125 C1.59125 5.08375 0.8075 5.0425 0 5 C-0.66 3.68 -1.32 2.36 -2 1 C-1.34 0.67 -0.68 0.34 0 0 Z " fill="#CBCBCB" transform="translate(420,89)"/>
<path d="M0 0 C3.65316671 1.24976756 4.78065836 1.67098753 7 5 C5.02 5.99 5.02 5.99 3 7 C3 5.68 3 4.36 3 3 C2.01 3 1.02 3 0 3 C0 2.01 0 1.02 0 0 Z " fill="#BEBEBE" transform="translate(445,123)"/>
<path d="M0 0 C3.3 0.33 6.6 0.66 10 1 C10 1.66 10 2.32 10 3 C5.06071112 3.3367697 4.21507278 3.16130459 0 0 Z " fill="#9D9D9D" transform="translate(409,225)"/>
<path d="M0 0 C0.66 0.33 1.32 0.66 2 1 C2 2.32 2 3.64 2 5 C1.34 5 0.68 5 0 5 C0 5.99 0 6.98 0 8 C-0.66 8 -1.32 8 -2 8 C-1.125 2.25 -1.125 2.25 0 0 Z " fill="#7D7D7D" transform="translate(18,182)"/>
<path d="M0 0 C0.66 0.99 1.32 1.98 2 3 C2.66 2.67 3.32 2.34 4 2 C4 2.99 4 3.98 4 5 C2.125 5.625 2.125 5.625 0 6 C-0.66 5.34 -1.32 4.68 -2 4 C-1.34 2.68 -0.68 1.36 0 0 Z " fill="#CBCBCB" transform="translate(75,151)"/>
<path d="M0 0 C0.33 0.66 0.66 1.32 1 2 C-0.61594832 4.04119788 -2.2856382 6.04072937 -4 8 C-4.66 8 -5.32 8 -6 8 C-4.55746343 4.63408134 -2.66735273 2.48952921 0 0 Z " fill="#595959" transform="translate(94,119)"/>
</svg>
